<mxfile host="app.diagrams.net" modified="2021-09-15T08:50:29.345Z" agent="5.0 (Windows NT 10.0; Win64; x64) AppleWebKit/537.36 (KHTML, like Gecko) Chrome/93.0.4577.82 Safari/537.36" etag="YRTymLeozTbxdO-IG0-A" version="15.2.7" type="github">
  <diagram id="R2lEEEUBdFMjLlhIrx00" name="Page-1">
    <mxGraphModel dx="782" dy="1846" grid="1" gridSize="10" guides="1" tooltips="1" connect="1" arrows="1" fold="1" page="1" pageScale="1" pageWidth="850" pageHeight="1100" math="0" shadow="0" extFonts="Permanent Marker^https://fonts.googleapis.com/css?family=Permanent+Marker">
      <root>
        <mxCell id="0" />
        <mxCell id="1" parent="0" />
        <mxCell id="BwQDbkt73YdcrB1kdTZX-1" value="" style="group" parent="1" vertex="1" connectable="0">
          <mxGeometry x="60" y="570" width="750" height="190" as="geometry" />
        </mxCell>
        <mxCell id="QB4yElVCB4v4jR-u9dC9-13" value="" style="rounded=1;whiteSpace=wrap;html=1;fillColor=#e3c800;strokeColor=#B09500;fontColor=#000000;" parent="BwQDbkt73YdcrB1kdTZX-1" vertex="1">
          <mxGeometry width="750" height="190" as="geometry" />
        </mxCell>
        <mxCell id="QB4yElVCB4v4jR-u9dC9-7" value="PDS" style="shape=process;whiteSpace=wrap;html=1;backgroundOutline=1;" parent="BwQDbkt73YdcrB1kdTZX-1" vertex="1">
          <mxGeometry x="300" y="50" width="120" height="60" as="geometry" />
        </mxCell>
        <mxCell id="QB4yElVCB4v4jR-u9dC9-8" value="TEST_fec-scope_04_siema_a&lt;br&gt;fec_siemens_LITUANIA&lt;br&gt;&lt;br&gt;com.indra.davinci.fecsiemens.TEST_FecSiemens&lt;br&gt;" style="text;html=1;strokeColor=#6c8ebf;fillColor=#dae8fc;align=center;verticalAlign=middle;whiteSpace=wrap;rounded=0;" parent="BwQDbkt73YdcrB1kdTZX-1" vertex="1">
          <mxGeometry x="460" y="40" width="270" height="80" as="geometry" />
        </mxCell>
        <mxCell id="QB4yElVCB4v4jR-u9dC9-11" value="/fec_siemens_LITUANIA/&lt;br&gt;test/dummy-ence/resources/config&lt;br&gt;/fec_dummy/ences/Escenario_vacio.xml" style="text;html=1;strokeColor=#d6b656;fillColor=#fff2cc;align=center;verticalAlign=middle;whiteSpace=wrap;rounded=0;" parent="BwQDbkt73YdcrB1kdTZX-1" vertex="1">
          <mxGeometry x="40" y="45" width="220" height="80" as="geometry" />
        </mxCell>
        <mxCell id="BwQDbkt73YdcrB1kdTZX-7" value="" style="group" parent="1" vertex="1" connectable="0">
          <mxGeometry x="10" y="230" width="830" height="300" as="geometry" />
        </mxCell>
        <mxCell id="BwQDbkt73YdcrB1kdTZX-2" value="" style="rounded=1;whiteSpace=wrap;html=1;fillColor=#fad9d5;strokeColor=#ae4132;" parent="BwQDbkt73YdcrB1kdTZX-7" vertex="1">
          <mxGeometry width="830" height="300" as="geometry" />
        </mxCell>
        <mxCell id="QB4yElVCB4v4jR-u9dC9-5" value="FEC SIEMENS" style="shape=process;whiteSpace=wrap;html=1;backgroundOutline=1;" parent="BwQDbkt73YdcrB1kdTZX-7" vertex="1">
          <mxGeometry x="410" y="116.66666666666667" width="120" height="66.66666666666667" as="geometry" />
        </mxCell>
        <mxCell id="QB4yElVCB4v4jR-u9dC9-9" value="fec-scope_04_siema_a&lt;br&gt;lib&lt;br&gt;&lt;br&gt;com.indra.davinci.common.app.DavinciAppManager" style="text;html=1;strokeColor=#6c8ebf;fillColor=#dae8fc;align=center;verticalAlign=middle;whiteSpace=wrap;rounded=0;" parent="BwQDbkt73YdcrB1kdTZX-7" vertex="1">
          <mxGeometry x="540" y="88.88888888888889" width="280" height="122.22222222222223" as="geometry" />
        </mxCell>
        <mxCell id="QDFLQy48Gwb5qH2AuqSx-2" value="/__ADAP_LIT_CTC_20180312/&lt;br&gt;/CTC/Plantillas/Siemens/Kretinga.xlsm&amp;nbsp; &amp;nbsp;(DATOS_ADAPT)&lt;br&gt;ALT+F1&lt;br&gt;importar macros&lt;br&gt;/__MACROS_fec/siemens/MacroFecSiemensA.bas&lt;br&gt;" style="text;html=1;strokeColor=#d6b656;fillColor=#fff2cc;align=left;verticalAlign=middle;whiteSpace=wrap;rounded=0;" parent="BwQDbkt73YdcrB1kdTZX-7" vertex="1">
          <mxGeometry x="20" y="11.11111111111111" width="390" height="90" as="geometry" />
        </mxCell>
        <mxCell id="pC3ntmLX9uvUexjrenxn-2" value="/configuration_gen_fec-scope_04_siema_a_FEC_SIEMENS_A&lt;br&gt;&lt;div style=&quot;text-align: left&quot;&gt;&lt;span&gt;config/modules/sfec/ences/KRE.xml&amp;nbsp; &amp;nbsp; (elementos)&lt;/span&gt;&lt;/div&gt;&lt;div style=&quot;text-align: left&quot;&gt;&lt;span&gt;&lt;br&gt;&lt;/span&gt;&lt;/div&gt;&lt;div style=&quot;text-align: left&quot;&gt;&lt;span&gt;com.indra.davinci.sfec.process.datamanager.SiemensDataManager.&lt;/span&gt;&lt;/div&gt;&lt;div style=&quot;text-align: left&quot;&gt;&lt;span&gt;getSiemensCommand(String) (&lt;/span&gt;&lt;span&gt;KRE.IO 1K&amp;nbsp; ---&amp;gt;&amp;nbsp;&lt;/span&gt;&lt;span&gt;8290-207-26124)&lt;/span&gt;&lt;/div&gt;&lt;div style=&quot;text-align: left&quot;&gt;&lt;span&gt;&lt;br&gt;&lt;/span&gt;&lt;/div&gt;" style="text;html=1;strokeColor=#d6b656;fillColor=#fff2cc;align=center;verticalAlign=middle;whiteSpace=wrap;rounded=0;" parent="BwQDbkt73YdcrB1kdTZX-7" vertex="1">
          <mxGeometry x="10" y="144.44444444444446" width="395" height="100" as="geometry" />
        </mxCell>
        <mxCell id="sruSKKzcnbRnCq-W4u0y-1" style="edgeStyle=orthogonalEdgeStyle;rounded=0;orthogonalLoop=1;jettySize=auto;html=1;exitX=0.5;exitY=1;exitDx=0;exitDy=0;entryX=0.5;entryY=0;entryDx=0;entryDy=0;" parent="BwQDbkt73YdcrB1kdTZX-7" source="QDFLQy48Gwb5qH2AuqSx-2" target="pC3ntmLX9uvUexjrenxn-2" edge="1">
          <mxGeometry x="-60" as="geometry" />
        </mxCell>
        <mxCell id="ZU3Zh7FAkG5Oe78XLKud-1" value="&lt;div&gt;para jdk 1.6&lt;/div&gt;&lt;div&gt;/lib/rfc1006-1.0.0.jar&lt;/div&gt;&lt;div&gt;/lib/rfc1006-lic-1.0.1.jar&lt;/div&gt;" style="text;html=1;align=center;verticalAlign=middle;whiteSpace=wrap;rounded=0;fillColor=#D5E8D4;" parent="BwQDbkt73YdcrB1kdTZX-7" vertex="1">
          <mxGeometry x="490" y="244.44" width="270" height="50" as="geometry" />
        </mxCell>
        <mxCell id="kCaM5YJuaT1ZFpCK_acC-1" value="" style="group" parent="1" vertex="1" connectable="0">
          <mxGeometry x="30" y="50" width="810" height="120" as="geometry" />
        </mxCell>
        <mxCell id="BwQDbkt73YdcrB1kdTZX-4" value="" style="rounded=1;whiteSpace=wrap;html=1;fillColor=#b0e3e6;strokeColor=#0e8088;" parent="kCaM5YJuaT1ZFpCK_acC-1" vertex="1">
          <mxGeometry width="810" height="120" as="geometry" />
        </mxCell>
        <mxCell id="QB4yElVCB4v4jR-u9dC9-6" value="CTC - DUMMIE" style="shape=process;whiteSpace=wrap;html=1;backgroundOutline=1;" parent="kCaM5YJuaT1ZFpCK_acC-1" vertex="1">
          <mxGeometry x="260" y="30" width="150" height="60" as="geometry" />
        </mxCell>
        <mxCell id="QB4yElVCB4v4jR-u9dC9-10" value="__CTC_DUMMY&lt;br&gt;__PROOF_ctc_simulator&lt;br&gt;&lt;br&gt;com.indra.davinci.ctc.proxyfec.ProxyFECDummy" style="text;html=1;strokeColor=#6c8ebf;fillColor=#dae8fc;align=center;verticalAlign=middle;whiteSpace=wrap;rounded=0;" parent="kCaM5YJuaT1ZFpCK_acC-1" vertex="1">
          <mxGeometry x="470" y="30" width="280" height="60" as="geometry" />
        </mxCell>
        <mxCell id="QDFLQy48Gwb5qH2AuqSx-1" value="/__PROOF_ctc_simulator/&lt;br&gt;config/CTC_config.xml&lt;br&gt;config/Subscription.xml&lt;br&gt;config/socket.properties&lt;br&gt;&lt;br&gt;com.indra.davinci.ctc.proxyfec.ProxyFECDummy.sendCommand(String, String)" style="text;html=1;strokeColor=#d6b656;fillColor=#fff2cc;align=center;verticalAlign=middle;whiteSpace=wrap;rounded=0;" parent="kCaM5YJuaT1ZFpCK_acC-1" vertex="1">
          <mxGeometry x="10" y="20" width="440" height="80" as="geometry" />
        </mxCell>
        <mxCell id="ZU3Zh7FAkG5Oe78XLKud-2" value="" style="group" parent="1" vertex="1" connectable="0">
          <mxGeometry x="10" y="220" width="830" height="320" as="geometry" />
        </mxCell>
        <mxCell id="ZU3Zh7FAkG5Oe78XLKud-3" value="" style="rounded=1;whiteSpace=wrap;html=1;fillColor=#fad9d5;strokeColor=#ae4132;" parent="ZU3Zh7FAkG5Oe78XLKud-2" vertex="1">
          <mxGeometry width="830" height="320" as="geometry" />
        </mxCell>
        <mxCell id="ZU3Zh7FAkG5Oe78XLKud-4" value="FEC SIEMENS" style="shape=process;whiteSpace=wrap;html=1;backgroundOutline=1;" parent="ZU3Zh7FAkG5Oe78XLKud-2" vertex="1">
          <mxGeometry x="410" y="124.44444444444444" width="120" height="71.11111111111111" as="geometry" />
        </mxCell>
        <mxCell id="ZU3Zh7FAkG5Oe78XLKud-5" value="fec-scope_04_siema_a&lt;br&gt;lib&lt;br&gt;&lt;br&gt;com.indra.davinci.common.app.DavinciAppManager" style="text;html=1;strokeColor=#6c8ebf;fillColor=#dae8fc;align=center;verticalAlign=middle;whiteSpace=wrap;rounded=0;" parent="ZU3Zh7FAkG5Oe78XLKud-2" vertex="1">
          <mxGeometry x="540" y="94.81481481481481" width="280" height="130.37037037037038" as="geometry" />
        </mxCell>
        <mxCell id="ZU3Zh7FAkG5Oe78XLKud-6" value="/__ADAP_LIT_CTC_20180312/&lt;br&gt;/CTC/Plantillas/Siemens/Kretinga.xlsm&amp;nbsp; &amp;nbsp;(DATOS_ADAPT)&lt;br&gt;ALT+F1&lt;br&gt;importar macros&lt;br&gt;/__MACROS_fec/siemens/MacroFecSiemensA.bas&lt;br&gt;" style="text;html=1;strokeColor=#d6b656;fillColor=#fff2cc;align=left;verticalAlign=middle;whiteSpace=wrap;rounded=0;" parent="ZU3Zh7FAkG5Oe78XLKud-2" vertex="1">
          <mxGeometry x="20" y="11.851851851851851" width="390" height="96" as="geometry" />
        </mxCell>
        <mxCell id="ZU3Zh7FAkG5Oe78XLKud-7" value="/configuration_gen_fec-scope_04_siema_a_FEC_SIEMENS_A&lt;br&gt;&lt;div style=&quot;text-align: left&quot;&gt;&lt;span&gt;config/modules/sfec/ences/KRE.xml&amp;nbsp; &amp;nbsp; (elementos)&lt;/span&gt;&lt;/div&gt;&lt;div style=&quot;text-align: left&quot;&gt;&lt;span&gt;&lt;br&gt;&lt;/span&gt;&lt;/div&gt;&lt;div style=&quot;text-align: left&quot;&gt;&lt;span&gt;com.indra.davinci.sfec.process.datamanager.SiemensDataManager.&lt;/span&gt;&lt;/div&gt;&lt;div style=&quot;text-align: left&quot;&gt;&lt;span&gt;getSiemensCommand(String) (&lt;/span&gt;&lt;span&gt;KRE.IO 1K&amp;nbsp; ---&amp;gt;&amp;nbsp;&lt;/span&gt;&lt;span&gt;8290-207-26124)&lt;/span&gt;&lt;/div&gt;&lt;div style=&quot;text-align: left&quot;&gt;&lt;span&gt;&lt;br&gt;&lt;/span&gt;&lt;/div&gt;" style="text;html=1;strokeColor=#d6b656;fillColor=#fff2cc;align=center;verticalAlign=middle;whiteSpace=wrap;rounded=0;" parent="ZU3Zh7FAkG5Oe78XLKud-2" vertex="1">
          <mxGeometry x="10" y="154.07407407407408" width="395" height="106.66666666666667" as="geometry" />
        </mxCell>
        <mxCell id="ZU3Zh7FAkG5Oe78XLKud-8" style="edgeStyle=orthogonalEdgeStyle;rounded=0;orthogonalLoop=1;jettySize=auto;html=1;exitX=0.5;exitY=1;exitDx=0;exitDy=0;entryX=0.5;entryY=0;entryDx=0;entryDy=0;" parent="ZU3Zh7FAkG5Oe78XLKud-2" source="ZU3Zh7FAkG5Oe78XLKud-6" target="ZU3Zh7FAkG5Oe78XLKud-7" edge="1">
          <mxGeometry x="-60" as="geometry" />
        </mxCell>
        <mxCell id="ZU3Zh7FAkG5Oe78XLKud-9" style="edgeStyle=orthogonalEdgeStyle;rounded=0;orthogonalLoop=1;jettySize=auto;html=1;exitX=0;exitY=0.5;exitDx=0;exitDy=0;entryX=1;entryY=0.5;entryDx=0;entryDy=0;" parent="ZU3Zh7FAkG5Oe78XLKud-2" source="ZU3Zh7FAkG5Oe78XLKud-10" target="ZU3Zh7FAkG5Oe78XLKud-11" edge="1">
          <mxGeometry relative="1" as="geometry" />
        </mxCell>
        <mxCell id="ZU3Zh7FAkG5Oe78XLKud-10" value="&lt;div&gt;para jdk 1.6&lt;/div&gt;&lt;div&gt;/lib/rfc1006-1.0.0.jar&lt;/div&gt;&lt;div&gt;/lib/rfc1006-lic-1.0.1.jar&lt;/div&gt;" style="text;html=1;align=center;verticalAlign=middle;whiteSpace=wrap;rounded=0;fillColor=#D5E8D4;" parent="ZU3Zh7FAkG5Oe78XLKud-2" vertex="1">
          <mxGeometry x="540" y="249.99599999999998" width="270" height="53.333333333333336" as="geometry" />
        </mxCell>
        <mxCell id="ZU3Zh7FAkG5Oe78XLKud-11" value="fec_siemens_LITUANIA&lt;br&gt;com.indra.davinci.sfec.connectors.ence.rfc1006.TSAPConnection.sendData(byte[])" style="text;html=1;strokeColor=#d6b656;fillColor=#fff2cc;align=center;verticalAlign=middle;whiteSpace=wrap;rounded=0;" parent="ZU3Zh7FAkG5Oe78XLKud-2" vertex="1">
          <mxGeometry x="30" y="265.47266666666667" width="450" height="48.59733333333334" as="geometry" />
        </mxCell>
        <mxCell id="OfEgpxWAdfeQ7ilTBHPo-1" value="NO SE RECONECTA CUANDO SE REINICIA EL FEC" style="text;html=1;strokeColor=#B20000;fillColor=#e51400;align=center;verticalAlign=middle;whiteSpace=wrap;rounded=0;fontColor=#ffffff;" vertex="1" parent="1">
          <mxGeometry x="200" y="-40" width="490" height="20" as="geometry" />
        </mxCell>
      </root>
    </mxGraphModel>
  </diagram>
</mxfile>
